<?xml version="1.0" encoding="UTF-8"?>
<svg width="144" height="30" viewBox="0 0 144 30" xmlns="http://www.w3.org/2000/svg">
  <g fill="none" fill-rule="evenodd">
    <path d="M139.761 6.92c-.616-.392-1.672-.448-2.448-.448-2.128 0-3.416 1.008-4.256 2.296l-.28-1.848h-3.136v16.912h3.584V13.96c.56-.784 1.512-1.624 2.856-1.624.784 0 1.624.168 2.128.504l1.552-5.92zm-15.008 8.008c0-3.136-2.296-5.6-5.712-5.6-3.36 0-5.768 2.464-5.768 5.6 0 3.136 2.408 5.6 5.768 5.6 3.416 0 5.712-2.464 5.712-5.6zm-3.584 0c0 1.568-.952 2.744-2.128 2.744-1.176 0-2.128-1.176-2.128-2.744 0-1.568.952-2.744 2.128-2.744 1.176 0 2.128 1.176 2.128 2.744zm-12.88-5.6c-1.4 0-2.52.56-3.36 1.456l-.224-1.008h-3.136v10.864h3.584v-5.712c0-1.624.784-2.744 2.072-2.744 1.12 0 1.736.784 1.736 2.016v6.44h3.584v-6.44c0-2.912-1.792-4.872-4.256-4.872zm-14.952 5.6c0-3.136-2.296-5.6-5.712-5.6-3.36 0-5.768 2.464-5.768 5.6 0 3.136 2.408 5.6 5.768 5.6 3.416 0 5.712-2.464 5.712-5.6zm-3.584 0c0 1.568-.952 2.744-2.128 2.744-1.176 0-2.128-1.176-2.128-2.744 0-1.568.952-2.744 2.128-2.744 1.176 0 2.128 1.176 2.128 2.744zm-12.824-5.6c-1.4 0-2.52.56-3.36 1.456l-.224-1.008h-3.136v10.864h3.584v-5.712c0-1.624.784-2.744 2.072-2.744 1.12 0 1.736.784 1.736 2.016v6.44h3.584v-6.44c0-2.912-1.792-4.872-4.256-4.872z" fill="#054752"/>
    <path d="M36.937 14.928c0-3.136-2.296-5.6-5.712-5.6-3.36 0-5.768 2.464-5.768 5.6 0 3.136 2.408 5.6 5.768 5.6 3.416 0 5.712-2.464 5.712-5.6zm-3.584 0c0 1.568-.952 2.744-2.128 2.744-1.176 0-2.128-1.176-2.128-2.744 0-1.568.952-2.744 2.128-2.744 1.176 0 2.128 1.176 2.128 2.744zM23.513 9.328l-.224-1.008h-3.136v10.864h3.584v-5.712c0-1.624.784-2.744 2.072-2.744 1.12 0 1.736.784 1.736 2.016v6.44h3.584v-6.44c0-2.912-1.792-4.872-4.256-4.872-1.4 0-2.52.56-3.36 1.456z" fill="#054752"/>
    <path d="M15.513 6.92c-.616-.392-1.672-.448-2.448-.448-2.128 0-3.416 1.008-4.256 2.296l-.28-1.848H5.393v16.912h3.584V13.96c.56-.784 1.512-1.624 2.856-1.624.784 0 1.624.168 2.128.504l1.552-5.92z" fill="#00AFF5"/>
  </g>
</svg> 